<svg width="141" height="134" viewBox="0 0 141 134" fill="none" xmlns="http://www.w3.org/2000/svg">
<path d="M56 0C86.9279 0 112 25.1686 112 56.2156C112 87.2626 86.9279 112.431 56 112.431C54.3328 112.431 52.6827 112.358 51.0526 112.214C48.6869 112.006 46.2905 112.457 44.2668 113.704L19.4526 129L26.4907 112.75C28.2019 108.799 26.565 104.24 23.0943 101.706C9.09849 91.4869 0 74.9182 0 56.2156C0 25.1686 25.0721 0 56 0Z" fill="#E66E02"/>
<path d="M100.5 36C122.868 36 141 53.9733 141 76.1446C141 88.5608 135.313 99.6597 126.38 107.023C124.484 108.586 123.79 111.247 124.965 113.396L136.235 134L102.544 116.238L103.871 116.151C102.759 116.242 101.635 116.289 100.5 116.289C78.1325 116.289 60 98.3158 60 76.1446C60 53.9733 78.1325 36 100.5 36Z" fill="#F3C49A"/>
</svg>
