<svg width="1776" height="2450" viewBox="0 0 1776 2450" fill="none" xmlns="http://www.w3.org/2000/svg">
<path d="M275.832 857.459C288.692 879.43 281.308 907.667 259.337 920.527C237.367 933.388 209.13 926.003 196.269 904.033L76.8966 700.105C64.0357 678.134 71.4207 649.898 93.3914 637.037C115.362 624.176 143.599 631.561 156.46 653.531L275.832 857.459Z" fill="#FF8000"/>
<path d="M1525.41 857.459C1512.55 879.43 1519.94 907.667 1541.91 920.527C1563.88 933.388 1592.12 926.003 1604.98 904.033L1724.35 700.105C1737.21 678.134 1729.83 649.898 1707.85 637.037C1685.88 624.176 1657.65 631.561 1644.79 653.531L1525.41 857.459Z" fill="#FF8000"/>
<path d="M887 46.0274C887 20.6074 907.595 -1.75985e-06 933 -1.75985e-06C958.405 -1.75985e-06 979 20.6074 979 46.0274V281.973C979 307.393 958.405 328 933 328C907.595 328 887 307.393 887 281.973V46.0274Z" fill="#FF8000"/>
<path d="M620.411 582.179C758.958 347.359 1101.52 355.811 1228.32 597.177L1749.39 1589.08C1829.6 1741.76 1718.84 1925 1546.35 1925H1021.86V1807.47H1546.35C1630.43 1807.47 1684.41 1718.15 1645.32 1643.73L1124.25 651.829C1040.28 491.983 813.413 486.386 721.66 641.896L133.407 1638.91C89.446 1713.42 143.17 1807.47 229.692 1807.47H756.79V1925H229.692C52.1876 1925 -58.0303 1732.05 32.1579 1579.19L620.411 582.179Z" fill="black"/>
<path d="M1537 2445V2191H1681.37C1693.2 2191 1702.79 2200.57 1702.79 2212.37C1702.79 2224.17 1693.2 2233.74 1681.37 2233.74H1592.4V2291.79H1671.06C1682.78 2291.79 1692.27 2301.27 1692.27 2312.96C1692.27 2324.65 1682.78 2334.13 1671.06 2334.13H1592.4V2402.26H1682.59C1694.41 2402.26 1704 2411.83 1704 2423.63C1704 2435.43 1694.41 2445 1682.59 2445H1537Z" fill="black"/>
<path d="M1325.07 2445V2234.54H1275.92C1263.81 2234.54 1254 2224.8 1254 2212.77C1254 2200.75 1263.81 2191 1275.92 2191H1431.08C1443.19 2191 1453 2200.75 1453 2212.77C1453 2224.8 1443.19 2234.54 1431.08 2234.54H1380.71V2445H1325.07Z" fill="black"/>
<path d="M812.038 2445C794.031 2445 777.953 2433.74 771.83 2416.84L690 2191H748.53L786.877 2306.31C790.914 2318.4 795.219 2331.98 799.794 2347.03C804.369 2362.08 808.405 2376.86 811.904 2391.38H813.115C816.882 2376.33 820.919 2361.54 825.224 2347.03C829.53 2332.25 833.701 2318.54 837.738 2305.9L876.085 2191H933L852.307 2416.67C846.233 2433.66 830.112 2445 812.038 2445Z" fill="black"/>
<path d="M1092.04 2192C1074.03 2192 1057.95 2203.3 1051.83 2220.27L970 2447H1028.53L1066.88 2331.24C1070.91 2319.1 1075.22 2305.47 1079.79 2290.36C1084.37 2275.25 1088.41 2260.4 1091.9 2245.83H1093.11C1096.88 2260.94 1100.92 2275.79 1105.22 2290.36C1109.53 2305.2 1113.7 2318.96 1117.74 2331.64L1156.08 2447H1213L1132.31 2220.44C1126.23 2203.39 1110.11 2192 1092.04 2192Z" fill="#FF8000"/>
<path d="M497.192 2450C473.231 2450 451.692 2444.87 432.577 2434.61C413.731 2424.36 398.923 2409.51 388.154 2390.07C377.385 2370.37 372 2346.48 372 2318.4C372 2291.14 377.519 2267.66 388.558 2247.95C399.596 2227.98 414.673 2212.72 433.788 2202.2C453.173 2191.4 474.846 2186 498.808 2186C523.038 2186 544.577 2191.26 563.423 2201.79C582.269 2212.05 597.077 2227.03 607.846 2246.74C618.615 2266.44 624 2290.33 624 2318.4C624 2345.67 618.481 2369.15 607.442 2388.86C596.404 2408.56 581.327 2423.68 562.212 2434.21C543.096 2444.74 521.423 2450 497.192 2450ZM498.808 2407.89C511.192 2407.89 522.365 2404.65 532.327 2398.17C542.558 2391.69 550.635 2381.84 556.558 2368.61C562.481 2355.39 565.442 2338.65 565.442 2318.4C565.442 2297.62 562.346 2280.61 556.154 2267.39C549.962 2253.89 541.75 2244.04 531.519 2237.83C521.288 2231.35 509.846 2228.11 497.192 2228.11C484.808 2228.11 473.5 2231.48 463.269 2238.23C453.308 2244.71 445.365 2254.7 439.442 2268.2C433.519 2281.42 430.558 2298.16 430.558 2318.4C430.558 2338.65 433.654 2355.39 439.846 2368.61C446.038 2381.84 454.25 2391.69 464.481 2398.17C474.981 2404.65 486.423 2407.89 498.808 2407.89Z" fill="black"/>
<path d="M104 2445V2409.52L224.56 2232.93H129.498C117.874 2232.93 108.45 2223.54 108.45 2211.97C108.45 2200.39 117.874 2191 129.498 2191H295.359V2222.04L172.371 2403.07H277.952C289.577 2403.07 299 2412.46 299 2424.03C299 2435.61 289.577 2445 277.952 2445H104Z" fill="black"/>
<path d="M904 1106V1179.76H865.774C856.395 1179.76 847.076 1181.24 838.163 1184.16C834.272 1185.44 830.479 1186.98 826.809 1188.77L873.885 1314.48C881.054 1333.63 881.296 1354.67 874.572 1373.97C866.015 1398.54 846.973 1418.04 822.595 1427.21L804.027 1434.19C794.447 1437.79 784.294 1439.63 774.058 1439.63C757.54 1439.63 741.38 1434.83 727.55 1425.81L721.619 1421.95C708.668 1413.5 698.562 1401.36 692.613 1387.1C686.258 1371.87 682.986 1355.54 682.986 1339.04V1271.11C682.986 1252.07 686.989 1233.24 694.734 1215.84C697.452 1209.73 700.618 1203.83 704.205 1198.19L713.055 1184.26C693.603 1179.03 675.867 1179.03 660.337 1182.84C632.543 1189.66 605.547 1210.2 585.141 1248.74C573.494 1270.73 575.959 1300.93 592.174 1330.98C689.449 1511.27 776.443 1650.61 756.758 1928L683.079 1922.79C701.098 1668.88 624.626 1546.63 527.148 1365.97C503.987 1323.04 492.684 1265.55 519.844 1214.26C547.944 1161.2 590.351 1124.06 642.713 1111.22C686.877 1100.38 733.641 1107.92 778.604 1131.33C790.016 1124.08 802.294 1118.28 815.152 1114.08C831.492 1108.73 848.579 1106 865.774 1106H904ZM756.85 1339.04C756.85 1345.8 758.19 1352.5 760.794 1358.73C761.042 1359.33 761.466 1359.84 762.007 1360.19L767.937 1364.06C769.757 1365.25 771.884 1365.88 774.058 1365.88C775.405 1365.88 776.742 1365.64 778.003 1365.16L796.571 1358.18C800.434 1356.73 803.452 1353.64 804.808 1349.74C805.874 1346.69 805.836 1343.35 804.7 1340.32L766.386 1238C764.819 1240.5 763.43 1243.1 762.232 1245.79C758.684 1253.76 756.85 1262.39 756.85 1271.11V1339.04Z" fill="#FF8000"/>
<path d="M901.022 1106V1179.76H913.245C922.597 1179.76 931.891 1181.25 940.778 1184.16C944.659 1185.44 948.441 1186.98 952.101 1188.77L905.932 1312.41C898.283 1332.9 898.024 1355.42 905.198 1376.07C912.71 1397.7 927.866 1415.83 947.806 1427.04L948.435 1427.39C962.721 1435.42 978.83 1439.64 995.214 1439.64H1009.87C1020.66 1439.64 1031.35 1437.54 1041.34 1433.46C1063.83 1424.27 1081.19 1405.7 1088.87 1382.63L1090.62 1377.35C1093.86 1367.61 1095.52 1357.41 1095.52 1347.15V1271.12C1095.52 1252.07 1091.53 1233.24 1083.8 1215.84C1081.09 1209.73 1077.94 1203.83 1074.36 1198.19L1065.53 1184.26C1084.93 1179.03 1102.62 1179.03 1118.1 1182.84C1145.82 1189.66 1172.74 1210.21 1193.09 1248.74C1204.7 1270.74 1202.25 1300.93 1186.04 1330.84C1138.43 1418.65 1091.86 1497.71 1060.5 1589.09C1028.67 1681.85 1012.52 1786.61 1021.94 1929L1095.44 1924.12C1086.59 1790.5 1101.81 1695.64 1130.16 1613.06C1158.98 1529.1 1201.4 1457.09 1250.77 1366.02C1274.05 1323.07 1285.28 1265.55 1258.2 1214.26C1230.18 1161.2 1187.89 1124.06 1135.68 1111.22C1091.64 1100.38 1045.01 1107.92 1000.17 1131.33C988.789 1124.08 976.547 1118.29 963.724 1114.08C947.431 1108.73 930.392 1106 913.245 1106H901.022ZM1021.86 1347.15C1021.86 1349.49 1021.49 1351.81 1020.75 1354.02L1018.99 1359.3C1018.1 1361.96 1016.1 1364.11 1013.5 1365.17C1012.35 1365.64 1011.12 1365.88 1009.87 1365.88H995.214C991.459 1365.88 987.766 1364.92 984.492 1363.07L983.862 1362.72C979.605 1360.33 976.37 1356.46 974.766 1351.84C973.234 1347.43 973.289 1342.62 974.922 1338.25L1012.35 1238C1013.92 1240.5 1015.3 1243.1 1016.5 1245.79C1020.03 1253.77 1021.86 1262.39 1021.86 1271.12V1347.15Z" fill="#FF8000"/>
</svg>
