<svg width="1917" height="2083" viewBox="0 0 1917 2083" fill="none" xmlns="http://www.w3.org/2000/svg">
<path d="M297.654 925.364C311.533 949.075 303.563 979.547 279.853 993.426C256.143 1007.31 225.671 999.335 211.791 975.625L82.9678 755.552C69.0886 731.841 77.0582 701.369 100.768 687.49C124.479 673.611 154.951 681.58 168.83 705.291L297.654 925.364Z" fill="#FF8000"/>
<path d="M1646.17 925.364C1632.29 949.075 1640.26 979.547 1663.97 993.426C1687.68 1007.31 1718.16 999.335 1732.04 975.625L1860.86 755.552C1874.74 731.841 1866.77 701.369 1843.06 687.49C1819.35 673.611 1788.88 681.58 1775 705.291L1646.17 925.364Z" fill="#FF8000"/>
<path d="M957.254 49.8357C957.254 22.3133 979.561 0.00160804 1007.08 0.00160804C1034.59 0.00160804 1056.9 22.3133 1056.9 49.8357V305.295C1056.9 332.817 1034.59 355.129 1007.08 355.129C979.561 355.129 957.254 332.817 957.254 305.295V49.8357Z" fill="#FF8000"/>
<path d="M669.536 627.937C819.054 374.405 1188.74 383.53 1325.58 644.13L1887.91 1715.07C1974.47 1879.92 1854.94 2077.76 1668.79 2077.76H1102.77V1950.87H1668.79C1759.53 1950.87 1817.79 1854.43 1775.59 1774.08L1213.27 703.137C1122.65 530.554 877.821 524.51 778.802 692.413L143.97 1768.87C96.5285 1849.32 154.506 1950.87 247.879 1950.87H816.714V2077.76H247.879C56.3199 2077.76 -62.6253 1869.44 34.7042 1704.4L669.536 627.937Z" fill="black"/>
<path d="M974.215 1193.66V1273.28H933.085C922.993 1273.28 912.965 1274.88 903.376 1278.03C899.189 1279.41 895.108 1281.07 891.159 1283.01L941.811 1418.71C949.525 1439.37 949.786 1462.09 942.551 1482.92C933.344 1509.44 912.855 1530.49 886.625 1540.38L866.646 1547.92C856.338 1551.81 845.414 1553.8 834.4 1553.8C816.627 1553.8 799.238 1548.61 784.357 1538.88L777.976 1534.7C764.041 1525.59 753.167 1512.48 746.766 1497.09C739.929 1480.66 736.408 1463.02 736.408 1445.22V1371.89C736.408 1351.34 740.714 1331.01 749.048 1312.22C751.973 1305.63 755.38 1299.26 759.239 1293.17L768.762 1278.14C747.832 1272.5 728.748 1272.5 712.038 1276.61C682.132 1283.97 653.085 1306.14 631.128 1347.74C618.597 1371.48 621.248 1404.08 638.696 1436.52C743.362 1631.13 836.966 1781.53 815.785 2080.95L736.508 2075.33C755.896 1801.25 673.614 1669.3 568.729 1474.28C543.808 1427.94 531.646 1365.89 560.87 1310.52C591.105 1253.25 636.734 1213.16 693.075 1199.29C740.594 1187.6 790.911 1195.74 839.291 1221C851.571 1213.18 864.781 1206.92 878.616 1202.38C896.198 1196.61 914.583 1193.66 933.085 1193.66H974.215ZM815.884 1445.22C815.884 1452.51 817.326 1459.74 820.127 1466.47C820.395 1467.12 820.851 1467.66 821.433 1468.05L827.813 1472.22C829.772 1473.5 832.061 1474.18 834.4 1474.18C835.849 1474.18 837.287 1473.92 838.644 1473.41L858.623 1465.87C862.78 1464.31 866.027 1460.97 867.486 1456.77C868.633 1453.47 868.592 1449.87 867.37 1446.59L826.145 1336.15C824.459 1338.84 822.964 1341.65 821.675 1344.56C817.857 1353.16 815.884 1362.48 815.884 1371.89V1445.22Z" fill="#FF8000"/>
<path d="M971.081 1193.66V1273.28H984.316C994.442 1273.28 1004.5 1274.88 1014.13 1278.03C1018.33 1279.41 1022.43 1281.07 1026.39 1283.01L976.397 1416.47C968.116 1438.58 967.835 1462.88 975.603 1485.18C983.737 1508.52 1000.15 1528.09 1021.74 1540.19L1022.42 1540.57C1037.89 1549.24 1055.33 1553.8 1073.07 1553.8H1088.94C1100.62 1553.8 1112.19 1551.53 1123.01 1547.12C1147.36 1537.2 1166.16 1517.16 1174.47 1492.25L1176.37 1486.56C1179.88 1476.05 1181.67 1465.04 1181.67 1453.96V1371.89C1181.67 1351.34 1177.35 1331.01 1168.99 1312.22C1166.05 1305.63 1162.64 1299.26 1158.76 1293.17L1149.21 1278.14C1170.21 1272.5 1189.36 1272.5 1206.13 1276.61C1236.14 1283.97 1265.28 1306.14 1287.32 1347.74C1299.9 1371.49 1297.24 1404.07 1279.69 1436.35C1228.14 1531.14 1177.72 1616.48 1143.76 1715.11C1109.29 1815.23 1091.8 1928.32 1102.01 2082.01L1181.58 2076.75C1172.01 1932.52 1188.49 1830.13 1219.18 1740.99C1250.39 1650.35 1296.32 1572.64 1349.77 1474.34C1374.99 1427.97 1387.14 1365.88 1357.82 1310.52C1327.48 1253.24 1281.69 1213.16 1225.16 1199.29C1177.47 1187.6 1126.98 1195.74 1078.43 1221C1066.11 1213.18 1052.86 1206.92 1038.97 1202.38C1021.33 1196.61 1002.88 1193.66 984.316 1193.66H971.081ZM1101.92 1453.96C1101.92 1456.48 1101.51 1458.99 1100.72 1461.38L1098.81 1467.08C1097.85 1469.95 1095.68 1472.27 1092.87 1473.41C1091.62 1473.92 1090.29 1474.18 1088.94 1474.18H1073.07C1069 1474.18 1065 1473.14 1061.46 1471.15L1060.78 1470.77C1056.17 1468.19 1052.66 1464.01 1050.93 1459.02C1049.27 1454.26 1049.33 1449.07 1051.1 1444.35L1091.63 1336.15C1093.32 1338.84 1094.82 1341.65 1096.11 1344.56C1099.94 1353.16 1101.92 1362.48 1101.92 1371.89V1453.96Z" fill="#FF8000"/>
</svg>
